<?xml version="1.0" standalone="no"?>
<!DOCTYPE svg PUBLIC "-//W3C//DTD SVG 20010904//EN"
 "http://www.w3.org/TR/2001/REC-SVG-20010904/DTD/svg10.dtd">
<svg version="1.0" xmlns="http://www.w3.org/2000/svg"
 width="1280.000000pt" height="1280.000000pt" viewBox="0 0 1280.000000 1280.000000"
 preserveAspectRatio="xMidYMid meet">
<metadata>
Created by potrace 1.15, written by Peter Selinger 2001-2017
</metadata>
<g transform="translate(0.000000,1280.000000) scale(0.100000,-0.100000)"
fill="#3f51b5" stroke="none">
<path d="M6364 12216 c-345 -296 -652 -702 -743 -981 l-22 -70 -87 -42 c-420
-201 -859 -694 -1053 -1183 -93 -236 -120 -361 -126 -590 -4 -160 -3 -185 21
-290 39 -180 90 -301 193 -457 94 -143 315 -358 481 -469 163 -109 633 -177
897 -130 381 69 607 300 697 716 28 127 30 328 5 509 -26 182 -20 529 10 636
24 83 53 142 92 187 55 63 136 251 177 411 36 140 36 313 0 410 -48 127 -126
212 -251 272 -62 30 -261 86 -395 112 -44 8 -45 9 -42 43 7 72 43 239 66 306
44 130 102 229 191 324 49 53 52 59 65 140 17 106 17 188 1 218 -24 44 -59 30
-177 -72z"/>
<path d="M9200 11444 c-23 -25 -62 -88 -87 -140 -40 -86 -43 -97 -34 -131 6
-21 11 -90 11 -154 0 -99 -4 -132 -31 -225 -16 -60 -50 -152 -75 -204 -59
-124 -72 -144 -87 -131 -13 10 -165 64 -301 106 -108 34 -258 35 -343 4 -208
-77 -353 -307 -408 -646 -17 -104 -21 -196 -11 -239 12 -51 -21 -180 -74 -292
-76 -159 -201 -341 -355 -518 -74 -85 -152 -221 -200 -349 -98 -261 -100 -500
-5 -704 130 -277 459 -506 908 -632 80 -22 88 -22 215 -11 200 19 336 46 479
97 491 176 797 578 894 1178 25 150 30 477 10 637 -44 359 -137 649 -284 884
l-49 79 14 46 c65 216 65 631 2 986 -33 184 -80 362 -101 384 -27 30 -40 26
-88 -25z"/>
<path d="M1956 9958 c-85 -113 -267 -457 -341 -647 -85 -218 -144 -461 -145
-596 0 -32 -8 -49 -40 -85 -287 -323 -476 -930 -457 -1465 17 -467 154 -832
410 -1093 209 -212 484 -340 858 -401 157 -26 180 -26 287 0 454 109 766 308
910 578 62 117 87 221 86 366 -1 204 -45 348 -207 685 -82 169 -266 582 -329
735 -11 28 -26 64 -34 82 -7 18 -27 90 -43 160 -36 150 -58 217 -111 331 -110
236 -276 389 -457 423 -63 12 -237 6 -290 -10 -18 -5 -35 -6 -37 -3 -2 4 -9
57 -15 118 -18 182 11 350 85 483 13 24 24 60 24 80 0 46 -25 187 -40 226 -28
72 -74 85 -114 33z"/>
<path d="M11719 6868 c-24 -19 -72 -67 -106 -108 -51 -60 -63 -82 -63 -110 -1
-70 -29 -191 -62 -267 -33 -76 -116 -213 -130 -213 -3 0 -22 22 -42 49 -20 27
-76 87 -124 133 -108 103 -198 150 -317 168 -206 31 -459 -76 -717 -305 -54
-47 -98 -90 -98 -95 0 -21 -472 -347 -799 -550 -309 -193 -435 -294 -537 -432
-284 -385 -185 -874 274 -1350 102 -106 112 -114 217 -164 241 -114 435 -163
669 -171 158 -5 233 1 351 32 525 136 979 635 1209 1329 68 204 106 413 106
576 0 84 2 90 40 156 73 127 145 344 190 574 46 235 75 699 48 750 -20 38 -57
37 -109 -2z"/>
<path d="M4995 5903 c-220 -26 -374 -68 -524 -143 -307 -154 -554 -442 -702
-820 -58 -148 -56 -145 -144 -234 -281 -284 -663 -441 -1063 -435 -111 1 -169
-16 -286 -85 -183 -109 -336 -336 -401 -593 -46 -186 -78 -522 -65 -698 21
-285 124 -549 314 -800 69 -92 238 -263 317 -322 144 -108 645 -358 1064 -532
376 -156 682 -260 1100 -372 39 -11 102 -28 140 -39 379 -107 653 -169 1040
-234 305 -52 691 -94 930 -103 156 -5 181 -3 300 20 274 55 468 134 668 273
105 73 277 246 349 349 64 92 221 394 265 511 67 177 77 233 77 429 0 169 -2
185 -27 260 -53 157 -134 270 -235 330 -347 205 -588 549 -672 959 -21 102
-21 110 -6 174 50 212 63 494 32 677 -33 194 -103 373 -207 530 -99 149 -315
346 -493 449 -208 121 -492 226 -721 266 -38 7 -110 28 -160 46 -288 104 -671
164 -890 137z"/>
</g>
</svg>
