<?xml version="1.0" standalone="no"?>
<!DOCTYPE svg PUBLIC "-//W3C//DTD SVG 20010904//EN"
 "http://www.w3.org/TR/2001/REC-SVG-20010904/DTD/svg10.dtd">
<svg version="1.0" xmlns="http://www.w3.org/2000/svg"
 width="1280.000000pt" height="1280.000000pt" viewBox="0 0 1280.000000 1280.000000"
 preserveAspectRatio="xMidYMid meet">
<metadata>
Created by potrace 1.15, written by Peter Selinger 2001-2017
</metadata>
<g transform="translate(0.000000,1280.000000) scale(0.100000,-0.100000)"
fill="#3f51b5" stroke="none">
<path d="M1936 11526 c-80 -30 -159 -115 -194 -209 -94 -251 -3 -593 210 -793
86 -80 161 -116 258 -122 97 -6 159 19 225 89 87 93 123 218 112 389 -8 120
-27 191 -81 305 -75 157 -164 254 -295 320 -67 33 -176 43 -235 21z"/>
<path d="M2909 11240 c-48 -9 -119 -51 -145 -87 -74 -100 -99 -203 -91 -366
12 -236 106 -450 272 -613 195 -193 422 -191 528 3 116 214 51 585 -148 843
-120 156 -287 245 -416 220z"/>
<path d="M1112 11029 c-73 -12 -122 -39 -174 -98 -82 -91 -101 -228 -53 -378
37 -116 88 -196 195 -303 78 -78 111 -103 186 -142 110 -56 181 -72 294 -66
99 5 149 26 210 89 94 98 107 274 32 444 -127 289 -440 495 -690 454z"/>
<path d="M6432 10908 c-46 -16 -123 -87 -150 -140 -80 -154 -68 -375 29 -576
49 -101 164 -224 243 -261 150 -69 284 -36 366 90 50 78 65 141 65 274 -1 86
-6 127 -24 185 -54 178 -169 334 -293 400 -50 27 -75 34 -132 36 -39 2 -86 -2
-104 -8z"/>
<path d="M7301 10650 c-128 -31 -208 -180 -205 -380 7 -384 316 -765 570 -701
221 56 272 408 107 741 -50 100 -68 126 -142 201 -119 120 -226 165 -330 139z"/>
<path d="M5670 10457 c-133 -37 -202 -134 -203 -282 -2 -181 115 -378 296
-499 110 -73 173 -96 278 -103 142 -9 235 37 289 143 22 42 25 62 25 144 -1
149 -51 261 -179 397 -149 158 -360 242 -506 200z"/>
<path d="M2160 10257 c-118 -27 -216 -106 -269 -217 -25 -52 -26 -61 -21 -180
15 -373 3 -656 -41 -944 -10 -71 -19 -148 -19 -171 0 -102 72 -249 161 -331
99 -90 204 -129 333 -122 120 6 173 34 304 160 59 57 132 122 162 145 127 96
287 166 475 208 148 33 217 68 292 149 240 259 147 688 -189 870 -218 118
-658 309 -913 396 -129 44 -199 53 -275 37z"/>
<path d="M895 10056 c-112 -35 -178 -100 -209 -205 -79 -268 155 -643 480
-767 99 -38 246 -45 326 -15 274 104 254 515 -38 792 -174 164 -404 244 -559
195z"/>
<path d="M6640 9766 c-30 -7 -72 -20 -92 -30 -49 -24 -120 -101 -153 -166 -26
-52 -27 -56 -21 -179 12 -232 13 -295 5 -445 -9 -164 -21 -278 -46 -430 -13
-78 -14 -111 -5 -156 33 -178 192 -338 356 -359 74 -9 168 4 223 33 26 13 84
60 128 103 189 186 324 262 573 322 139 33 205 66 268 133 173 185 159 490
-31 684 -59 60 -79 72 -297 178 -222 109 -526 236 -688 289 -97 32 -152 38
-220 23z"/>
<path d="M5498 9587 c-156 -45 -233 -196 -192 -377 51 -228 236 -430 461 -506
152 -51 313 -19 383 77 90 125 79 298 -31 487 -43 72 -168 197 -242 241 -127
75 -278 106 -379 78z"/>
<path d="M9385 7260 c-113 -26 -185 -144 -185 -299 0 -140 56 -283 148 -383
157 -169 367 -137 427 65 19 65 19 187 0 262 -57 221 -243 391 -390 355z"/>
<path d="M5360 7131 c-80 -26 -127 -69 -166 -155 -36 -80 -44 -218 -20 -330
38 -170 157 -335 282 -393 143 -66 279 -13 347 136 30 64 32 288 3 371 -52
152 -157 290 -263 343 -55 28 -142 42 -183 28z"/>
<path d="M10005 7044 c-46 -26 -65 -45 -90 -95 -110 -215 26 -599 250 -710 56
-27 72 -31 124 -27 75 5 119 37 156 112 80 164 10 459 -148 620 -34 35 -82 73
-106 86 -58 29 -146 36 -186 14z"/>
<path d="M8723 6886 c-127 -60 -153 -209 -67 -384 78 -159 269 -292 419 -292
62 0 131 28 168 69 47 52 60 98 55 187 -14 214 -232 429 -448 441 -64 3 -82 1
-127 -21z"/>
<path d="M6090 6889 c-52 -21 -93 -63 -123 -127 -74 -159 -34 -426 93 -612 48
-71 144 -161 200 -190 67 -34 156 -38 215 -10 198 96 189 485 -18 766 -104
142 -260 215 -367 173z"/>
<path d="M4612 6704 c-227 -113 -150 -487 138 -679 151 -101 299 -119 412 -51
142 85 149 293 16 491 -140 210 -402 321 -566 239z"/>
<path d="M9485 6358 c-34 -12 -92 -53 -117 -83 -50 -59 -52 -72 -53 -385 -1
-255 -4 -315 -24 -442 -22 -141 -22 -150 -6 -204 21 -73 51 -120 112 -175 66
-59 134 -82 221 -77 89 5 130 27 220 115 130 127 262 202 422 238 119 27 160
46 216 102 146 144 133 399 -28 549 -76 71 -462 252 -737 345 -89 31 -170 37
-226 17z"/>
<path d="M8665 6233 c-89 -21 -134 -52 -166 -115 -42 -83 -31 -200 29 -312 35
-65 133 -170 198 -212 263 -169 522 -29 450 242 -43 162 -181 313 -339 372
-56 21 -139 33 -172 25z"/>
<path d="M5517 6109 c-62 -15 -112 -45 -160 -99 -71 -79 -77 -109 -65 -310 12
-198 1 -407 -34 -649 -21 -148 -21 -157 -5 -218 51 -193 226 -317 412 -292 80
11 128 40 232 140 155 149 279 218 478 264 122 27 179 53 233 105 178 171 157
491 -43 655 -89 72 -604 306 -848 384 -100 32 -135 35 -200 20z"/>
<path d="M4510 5951 c-117 -36 -180 -127 -180 -260 1 -133 68 -269 193 -387
195 -184 438 -216 560 -74 46 54 61 111 55 209 -12 207 -204 433 -426 501 -65
20 -156 25 -202 11z"/>
<path d="M9156 4040 c-38 -12 -83 -55 -109 -105 -32 -61 -36 -202 -8 -293 58
-193 228 -322 354 -268 83 35 127 123 127 252 0 131 -40 234 -129 327 -74 78
-162 110 -235 87z"/>
<path d="M9700 3851 c-138 -73 -138 -352 0 -549 81 -115 172 -171 262 -159 53
7 92 39 122 99 22 44 26 65 26 137 0 102 -17 170 -65 269 -84 170 -238 261
-345 203z"/>
<path d="M8598 3720 c-136 -73 -116 -297 40 -449 139 -135 317 -166 412 -71
44 44 54 81 48 169 -9 125 -125 278 -255 339 -78 36 -191 42 -245 12z"/>
<path d="M11610 3357 c-71 -47 -100 -151 -75 -269 18 -87 56 -157 115 -212
102 -95 213 -84 273 27 18 35 22 58 22 132 0 80 -4 97 -32 156 -75 160 -207
232 -303 166z"/>
<path d="M9229 3252 c-39 -20 -62 -41 -83 -76 l-30 -48 -1 -261 c-2 -191 -6
-289 -18 -361 -23 -137 -22 -171 11 -241 63 -132 207 -199 336 -156 23 8 72
44 119 89 130 121 225 173 380 207 95 21 160 62 204 128 85 127 59 312 -59
423 -54 51 -244 147 -460 233 -259 103 -307 111 -399 63z"/>
<path d="M12122 3233 c-34 -7 -86 -64 -100 -110 -59 -198 100 -493 267 -493
94 0 142 61 149 187 12 214 -164 446 -316 416z"/>
<path d="M8492 3144 c-63 -32 -102 -101 -102 -181 0 -51 34 -146 75 -207 101
-152 293 -240 419 -192 164 63 159 290 -9 462 -85 87 -166 126 -270 131 -61 3
-88 0 -113 -13z"/>
<path d="M11178 3110 c-80 -43 -100 -157 -48 -265 30 -63 121 -154 182 -184
70 -33 144 -38 202 -13 156 70 79 344 -127 449 -71 35 -158 41 -209 13z"/>
<path d="M11760 2740 c-50 -9 -96 -39 -127 -83 l-27 -38 3 -187 c1 -124 -3
-226 -13 -302 -21 -152 -20 -176 8 -235 40 -86 116 -137 205 -138 71 0 107 18
192 98 81 76 151 117 249 145 41 11 92 26 113 32 48 14 119 91 135 146 36 120
-7 248 -109 321 -74 54 -469 224 -559 240 -19 4 -51 4 -70 1z"/>
<path d="M11120 2641 c-112 -34 -146 -149 -83 -282 96 -206 365 -297 453 -154
29 48 34 96 15 161 -36 123 -131 223 -252 263 -65 22 -92 24 -133 12z"/>
</g>
</svg>
